<svg id="Layer_1" data-name="Layer 1" xmlns="http://www.w3.org/2000/svg" viewBox="0 0 399.16 635.48"><defs><style>.cls-1,.cls-2,.cls-3,.cls-4{fill:none;}.cls-1,.cls-2,.cls-3,.cls-4,.cls-5{stroke:#a92c2c;stroke-miterlimit:10;}.cls-1{stroke-width:18px;}.cls-2{stroke-width:10px;}.cls-3,.cls-5{stroke-width:11px;}.cls-4{stroke-width:15px;}.cls-5{fill:#a92c2c;}</style></defs><title>logonew</title><rect class="cls-1" x="9.99" y="11.04" width="376.17" height="614.09"/><rect class="cls-2" x="38.9" y="42.32" width="320.97" height="546.06"/><polygon class="cls-3" points="164.62 153.66 140.97 153.66 178.46 231.11 200.8 231.11 164.62 153.66"/><rect class="cls-3" x="157.73" y="272.33" width="22.84" height="75.42"/><line class="cls-4" x1="136.87" y1="269.86" x2="260.88" y2="269.86"/><line class="cls-4" x1="136.87" y1="350.77" x2="260.88" y2="350.77"/><rect class="cls-3" x="156.88" y="391.5" width="22.84" height="78"/><line class="cls-4" x1="139.93" y1="389.35" x2="258.84" y2="389.35"/><path class="cls-4" d="M196.83,438.33s54.74,5.28,54.73-36.81"/><path class="cls-4" d="M208.27,434.55s-6.61,37.13,44.92,36.77"/><line class="cls-4" x1="137.38" y1="235.69" x2="261.39" y2="235.69"/><polygon class="cls-5" points="235.57 153.66 259.22 153.66 221.73 231.11 199.39 231.11 235.57 153.66"/></svg>