<svg width="908" height="541" viewBox="0 0 908 541" fill="none" xmlns="http://www.w3.org/2000/svg">
<rect x="0.917969" y="48.5468" width="906.165" height="404.13" fill="#DCE8EE"/>
<rect x="269.785" y="51.1588" width="368.43" height="385.401" fill="#DCE8EE"/>
<path d="M431.942 330.928C431.942 330.928 429.324 338.949 437.797 342.716L441.919 347.286C435.73 346.156 430.191 344.879 421.959 334.836" fill="#B2DFD6"/>
<path d="M447.637 324.992C458.412 323.747 466.267 330.389 475.934 333.334L475.55 333.289C460.195 336.78 450.447 335.279 436.249 327.231" fill="#B2DFD6"/>
<path d="M514.728 360.948C517.111 361.59 532.299 352.702 517.984 340.22C502.697 326.898 438.366 320.73 415.862 339.071C396.979 354.473 377.545 354.685 377.545 354.685C377.545 354.685 384.489 349.159 381.803 348.364C379.117 347.568 372.668 353.08 372.668 353.08C374.661 328.964 401.194 304.392 401.194 304.392C434.851 262.679 509.579 270.682 535.691 309.904C535.691 309.904 568.172 359.466 526.407 373.192C526.407 373.192 524.489 371.851 510.563 395.897C497.566 418.3 503.371 387.554 497.343 386.521C491.315 385.488 496.959 360.21 488.251 362.321C488.263 362.321 491.68 354.537 514.728 360.948Z" fill="white"/>
<path d="M503.78 404.021C500.109 402.59 500.914 388.62 496.835 386.149C492.757 383.678 493.741 371.877 493.741 371.877C493.221 360.691 486.933 362.892 486.933 362.892L493.078 359.042C501.564 355.121 516.764 359.748 523.028 367.385L521.431 370.253C525.855 369.656 530.023 367.766 533.451 364.805C543.192 356.745 547.104 343.313 543.848 330.838C538.897 311.92 517.575 289.767 517.575 289.767C554.778 314.794 549.58 348.858 546.757 358.355C544.603 365.581 526.803 373.552 526.803 373.552C526.803 373.552 507.524 405.26 503.78 404.021Z" fill="#D4EDEB"/>
<path d="M390.988 315.841C412.298 312.144 413.381 321.071 413.381 321.071C413.381 321.071 422.002 311.278 449.779 296.82C449.779 296.82 518.393 281.001 534.658 319.178C534.658 319.178 533.42 286.603 488.387 277.15C443.355 267.698 415.2 285.814 401.2 302.82L390.988 315.841Z" fill="#D4EDEB"/>
<path d="M438.229 278.363C438.229 278.363 448.405 257.68 471.521 262.962C471.521 262.962 452.081 270.181 467.48 274.596" fill="#B2DFD6"/>
<path d="M539.509 310.771C542.331 307.081 550.08 308.897 550.08 308.897C544.411 300.182 532.887 303.057 532.887 303.057C532.887 303.057 537.894 312.889 539.509 310.771Z" fill="#B2DFD6"/>
<path d="M504.529 331.717C504.956 332.05 505.341 332.438 505.674 332.872C506.023 333.314 506.265 333.835 506.38 334.393C506.495 334.951 506.48 335.53 506.336 336.081C506.166 336.627 505.815 337.092 505.344 337.395C504.874 337.697 504.315 337.816 503.768 337.73C504.944 337.846 506.058 338.513 507.227 338.372C509.115 338.166 510.322 336.042 512.129 335.522" fill="#B2DFD6"/>
<path d="M519.209 291.442C519.209 291.442 548.917 312.69 524.655 354.248" stroke="#D4EDEA" stroke-width="1.47" stroke-miterlimit="10"/>
<path d="M392.207 329.137C391.714 328.988 391.186 329.023 390.715 329.237C390.245 329.45 389.861 329.828 389.632 330.305C389.458 330.622 389.372 330.983 389.384 331.348C389.396 331.713 389.506 332.067 389.7 332.371C390.79 334.136 393.234 332.654 393.414 331.608C393.569 330.786 393.569 329.586 392.207 329.137Z" fill="#B2DFD6"/>
<path d="M409.073 310.642C410.076 311.284 411.072 312.016 412.279 312.086C413.901 312.176 415.411 311.271 416.803 310.405L430.989 301.568C434.826 299.181 439.177 296.049 437.389 290.8C437.037 289.817 436.519 288.906 435.86 288.111C435.179 287.271 434.362 286.128 433.161 285.916C432.436 285.773 431.686 285.881 431.026 286.225C421.668 291.442 412.848 294.33 406.405 302.332C406.04 302.783 405.779 303.315 405.643 303.887C405.506 304.458 405.498 305.055 405.619 305.631C405.835 306.666 406.253 307.645 406.847 308.506C407.441 309.368 408.198 310.095 409.073 310.642V310.642Z" fill="#BEE4DE"/>
<path d="M429.194 299.579C429.194 299.579 439.369 320.955 439.369 323.079C439.369 325.203 431.44 328.431 427.207 328.528C422.973 328.624 418.542 305.201 418.542 305.201L429.194 299.579Z" fill="#BEE4DE"/>
<path d="M438.75 289.273C438.711 288.374 438.908 287.482 439.32 286.691C439.732 285.9 440.344 285.24 441.089 284.781C443.409 283.358 446.179 282.95 448.789 283.645C454.638 285.255 450.763 300.907 454.173 306.182C457.132 310.764 462.56 312.542 462.157 294.118C461.885 281.771 461.953 282.496 465.493 281.662C469.467 280.725 473.583 281.745 473.316 285.942C473.05 290.139 476.64 322.566 472.939 322.47C470.049 322.399 465.19 322.996 465.654 320.801C466.174 318.337 463.352 320.621 461.941 321.026C461.302 321.199 460.645 321.292 459.985 321.302C447.842 321.674 443.856 317.451 441.721 308.724C440.359 302.993 438.979 295.87 438.75 289.273Z" fill="#BEE4DE"/>
<path d="M488.752 304.674L495.269 324.658C495.333 324.87 495.446 325.063 495.598 325.22C495.75 325.376 495.937 325.492 496.142 325.556L503.167 328.194C503.517 328.289 503.883 328.309 504.241 328.252C504.599 328.195 504.942 328.062 505.248 327.861C505.555 327.661 505.818 327.397 506.022 327.087C506.227 326.777 506.367 326.426 506.435 326.057C508.155 318.298 511.386 294.15 511.126 291.923C510.835 289.26 502.672 284.691 501.069 286.879C499.466 289.067 498.321 303.712 498.321 303.712L491.513 286.334C491.101 285.232 490.414 284.263 489.524 283.526C488.634 282.789 487.571 282.31 486.444 282.137L482.445 281.598C481.996 281.551 481.541 281.6 481.111 281.743C480.68 281.886 480.283 282.119 479.943 282.427C479.603 282.736 479.327 283.114 479.134 283.537C478.941 283.961 478.833 284.421 478.819 284.89C478.2 294.708 476.126 321.039 477.42 322.11C477.42 322.11 481.752 324.215 488.133 323.291C488.139 323.285 489.829 321.16 488.752 304.674Z" fill="#BEE4DE"/>
<path d="M508.025 328.643C508.025 328.643 518.2 336.928 519.847 334.329C521.493 331.73 521.233 322.746 524.86 321.719C528.487 320.692 524.631 338.404 525.417 340.207C526.203 342.01 529.749 343.563 529.749 343.563C529.749 343.563 541.509 322.386 529.749 302.852C516.115 280.199 508.025 328.643 508.025 328.643Z" fill="#BEE4DE"/>
<path d="M516.82 358.195C516.145 358.195 516.913 356.796 516.962 356.096C516.962 355.846 517.024 355.544 517.247 355.455C517.47 355.365 517.786 355.583 517.996 355.782C518.42 356.171 518.929 356.448 519.479 356.588C520.029 356.728 520.603 356.726 521.152 356.584C520.781 355.691 520.676 354.703 520.849 353.748C521.46 353.761 522.06 353.914 522.607 354.197L523.257 354.518L522.019 351.906C521.87 351.591 521.722 351.2 521.92 350.918C522.118 350.635 522.644 350.68 523.034 350.764C523.801 350.923 524.594 350.885 525.344 350.653C526.094 350.422 526.777 350.003 527.335 349.435C526.296 348.652 524.507 347.439 524.08 346.182C524.816 345.752 526.63 345.591 527.472 345.54C528.219 345.312 529.008 345.27 529.774 345.418C529.774 345.418 526.816 342.318 526.593 339.212C526.593 339.212 528.524 337.409 530.461 337.589C530.461 337.589 532.763 338.154 529.582 347.632C529.576 347.613 524.414 358.567 516.82 358.195Z" fill="#B2DFD6"/>
<path d="M517.353 358.586L513.732 356.661C513.649 356.605 513.553 356.572 513.453 356.565C513.375 356.575 513.299 356.603 513.231 356.644C513.163 356.686 513.104 356.742 513.057 356.809C512.546 357.409 512.267 358.184 512.271 358.984C511.75 358.698 511.335 358.242 511.089 357.686C510.843 357.131 510.78 356.507 510.91 355.91C510.582 355.964 510.28 356.126 510.047 356.37C509.815 356.615 509.663 356.931 509.616 357.271C509.566 357.584 509.583 357.905 509.666 358.211C509.75 358.517 509.897 358.8 510.098 359.039C510.299 359.279 510.549 359.47 510.829 359.598C511.11 359.726 511.414 359.788 511.72 359.78C514.14 359.844 517.353 358.586 517.353 358.586Z" fill="#B2DFD6"/>
<path d="M492.336 365.434C493.34 364.595 494.523 364.018 495.786 363.752C497.05 363.486 498.356 363.539 499.596 363.906C500.416 364.232 501.255 364.502 502.109 364.715C501.106 365.016 500.035 364.837 499.014 364.901C497.91 364.981 496.841 365.334 495.896 365.93C494.95 366.526 494.156 367.348 493.58 368.328" fill="#B2DFD6"/>
<path d="M493.784 368.963C494.447 368.389 495.232 367.987 496.074 367.789C494.893 369.241 493.954 370.887 493.295 372.66" fill="#B2DFD6"/>
<path d="M497.547 386.117C501.341 381.182 505.221 376.061 506.831 369.971C506.403 372.119 505.724 374.206 504.807 376.183C502.95 380.63 501.496 384.192 498.036 387.458" fill="#B2DFD6"/>
<path d="M532.696 302.749C533.216 303.994 535.091 301.6 535.976 300.599C534.608 301.517 532.881 301.472 531.223 301.395C531.223 301.395 532.423 302.101 532.696 302.749Z" fill="#B2DFD6"/>
<path d="M544.195 320.788C544.195 320.788 545 319.158 547.5 319.505C546.361 317.862 544.585 317.419 543.1 316.104C544.463 316.119 545.812 315.819 547.048 315.224C546.005 315.32 544.954 315.146 543.991 314.718C543.028 314.29 542.181 313.622 541.528 312.773C543.304 312.131 544.288 311.701 546.04 312.42C545.66 311.91 545.183 311.487 544.639 311.175C544.095 310.864 543.495 310.672 542.877 310.61C541.334 310.516 539.785 310.597 538.26 310.854C538.26 310.854 543.75 318.914 544.195 320.788Z" fill="#B2DFD6"/>
<path d="M545.538 324.472C545.742 325.576 547.667 325.807 548.051 326.859C548.008 326.127 547.821 325.412 547.501 324.758C547.182 324.103 546.737 323.523 546.194 323.054C545.575 322.547 544.87 322.142 544.548 321.417C544.548 321.417 545.414 323.779 545.538 324.472Z" fill="#B2DFD6"/>
<path d="M546.912 330.087C548.026 331.092 549.163 332.074 550.322 333.032C549.412 333.308 548.437 333.251 547.562 332.872C550.185 335.234 551.88 338.514 552.321 342.087C551.756 340.252 550.898 338.528 549.784 336.986C549.555 336.671 549.047 336.344 548.868 336.722C548.827 336.812 548.809 336.912 548.818 337.011C548.861 340.52 549.723 343.967 551.331 347.054C550.359 346.21 549.557 345.174 548.973 344.006" fill="#B2DFD6"/>
<path d="M548.534 350.751C548.404 352.945 548.633 355.159 548.534 357.361C548.435 359.562 547.915 361.853 546.528 363.508C547.365 361.019 547.596 358.354 547.203 355.75" fill="#B2DFD6"/>
<path d="M544.498 362.565L544.38 369.489L543.087 366.525C542.895 366.088 542.604 365.588 542.146 365.601C541.688 365.613 541.44 366.095 541.248 366.505C540.317 368.498 539.06 370.308 537.535 371.857C537.788 370.645 537.64 369.379 537.114 368.264C536.106 370.186 534.478 371.678 532.516 372.48C532.58 372.251 532.572 372.007 532.493 371.783C532.414 371.558 532.268 371.367 532.076 371.235C531.711 370.953 531.241 371.363 530.795 371.273" fill="#B2DFD6"/>
<path d="M499.763 280.847C501.406 279.285 503.395 278.167 505.554 277.592C507.713 277.018 509.976 277.005 512.141 277.555C510.32 277.82 508.557 278.411 506.93 279.3C506.317 279.559 505.82 280.047 505.537 280.667C505.178 281.758 506.088 282.823 506.917 283.587" fill="#B2DFD6"/>
<path d="M502.566 403.181C503.528 399.159 504.609 395.167 505.81 391.206C505.884 394.53 505.29 397.822 504.695 401.088C504.575 402.112 504.264 403.102 503.78 404.002C504.054 403.082 504.473 402.215 505.017 401.435C505.321 402.321 505.636 402.513 505.927 403.36" fill="#B2DFD6"/>
<path d="M393.302 328.893C391.681 328.893 389.793 327.809 388.208 328.54C386.352 329.4 386.185 331.916 386.352 333.706C386.426 334.419 387.509 334.425 387.435 333.706C387.249 331.903 387.435 329.278 389.756 329.458C390.944 329.554 392.083 330.004 393.284 330.023C393.428 330.023 393.566 329.963 393.669 329.857C393.771 329.752 393.828 329.608 393.828 329.458C393.828 329.308 393.771 329.165 393.669 329.059C393.566 328.953 393.428 328.893 393.284 328.893H393.302Z" fill="#B2DFD6"/>
<path d="M521.586 317.368C522.695 317.31 523.794 317.118 524.86 316.797C525.305 316.703 525.708 316.459 526.005 316.104C526.215 315.713 526.306 315.265 526.265 314.82C526.26 312.941 526.109 311.065 525.813 309.211C525.683 308.39 525.312 307.37 524.501 307.357C524.281 307.371 524.069 307.445 523.886 307.573C523.703 307.7 523.557 307.876 523.461 308.082C523.276 308.499 523.163 308.946 523.127 309.404C522.756 311.995 522.149 314.543 521.313 317.015" fill="white"/>
<path d="M521.586 317.368C522.695 317.31 523.794 317.118 524.86 316.797C525.305 316.703 525.708 316.459 526.005 316.104C526.215 315.713 526.306 315.265 526.265 314.82C526.26 312.941 526.109 311.065 525.813 309.211C525.683 308.39 525.312 307.37 524.501 307.357C524.281 307.371 524.069 307.445 523.886 307.573C523.703 307.7 523.557 307.876 523.461 308.082C523.276 308.499 523.163 308.946 523.127 309.404C522.756 311.995 522.149 314.543 521.313 317.015" fill="white"/>
<path d="M498.327 229.412C498.327 229.412 506.082 236.054 522.805 224.316C522.805 224.316 514.394 226.062 514.091 220.241" fill="#DD7466"/>
<path d="M514.524 131.297L511.318 122.537C494.861 121.722 500.945 86.2346 500.945 86.2346C498.474 96.9167 497.127 107.845 496.928 118.828C496.895 120.735 497.103 122.638 497.547 124.488C501.384 140.031 514.518 131.297 514.518 131.297" fill="#DD7466"/>
<path d="M538.148 170.398C538.148 170.398 554.859 164.443 543.167 144.414C543.167 144.414 543.359 152.693 535.443 151.608" fill="#DD7466"/>
<path d="M538.03 166.086C538.632 166.372 539.252 166.615 539.887 166.811C540.684 166.901 541.49 166.814 542.251 166.554C542.87 166.387 542.691 165.848 543.186 165.399" fill="#DD7466"/>
<path d="M524.575 122.679C524.575 122.679 540.209 122.037 530.337 102.252L529.972 101.553C527.985 97.849 525.238 94.642 521.926 92.1578L516.492 88.0378C516.492 88.0378 530.282 111.217 517.544 117.365L522.496 122.679H524.575Z" fill="#DD7466"/>
<path d="M427.213 222.212C427.08 234.206 428.898 246.139 432.591 257.507C435.76 254.253 440.365 253.162 444.487 251.391C444.695 251.329 444.874 251.193 444.994 251.006C445.039 250.877 445.057 250.739 445.046 250.601C445.035 250.464 444.997 250.331 444.932 250.21L440.427 238.069C439.553 235.515 438.479 233.041 437.215 230.67C435.11 226.967 432.115 223.906 429.169 220.896" fill="#DD7466"/>
<path d="M461.365 188.662C461.365 188.662 456.482 179.793 477.606 169.897C477.606 169.897 470.073 182.289 480.465 189.791" fill="#DD7466"/>
<path d="M517.061 133.524C517.061 133.524 511.491 127.216 511.708 120.94C511.708 120.94 510.829 111.955 516.387 115.26C520.917 117.975 522.712 124.071 523.195 126.24C523.316 126.765 523.515 127.267 523.783 127.729C527.818 134.66 558.529 191.043 509.548 223.938C495.931 233.083 478.521 233.615 462.287 232.357C401.014 227.615 387.664 177.579 387.664 177.579L415.231 159.437C416.227 160.368 445.737 187.673 475.476 188.193C500.493 188.623 537.832 156.806 517.049 133.524" fill="white"/>
<path d="M381.494 149.054C381.494 149.054 392.468 160.926 391.644 145.993" stroke="#F9B6A9" stroke-width="1.7" stroke-miterlimit="10"/>
<path d="M408.28 179.446C408.28 179.446 433.13 223.495 479.914 216.25C535.852 207.574 541.837 155.959 516.696 117.468C515.861 116.184 517.024 115.158 517.655 115.915C526.073 125.971 552.643 163.403 534.558 199.982C513.267 243.042 444.604 240.969 422.695 222.231C400.785 203.492 390.963 193.943 386.896 175.891C386.896 175.878 400.562 183.066 408.28 179.446Z" fill="#F9B6A9"/>
<path d="M386.897 176.604C383.611 174.428 381.382 170.828 380.157 166.978C378.931 163.127 378.647 159.052 378.56 155.009C378.441 149.336 378.716 143.661 379.383 138.029C379.383 138.029 378.096 154.592 389.106 155.471C400.117 156.35 383.821 133.235 383.821 133.235C383.821 133.235 387.658 128.955 392.919 133.235C398.18 137.516 414.129 148.637 414.953 158.327C415.776 168.017 415.503 179.71 404.227 179.421C392.95 179.132 386.897 176.604 386.897 176.604Z" fill="white"/>
<path d="M397.945 152.603C397.85 152.987 397.831 153.386 397.89 153.778C397.949 154.17 398.084 154.545 398.288 154.88C398.491 155.216 398.758 155.505 399.072 155.73C399.387 155.955 399.742 156.112 400.117 156.19C400.935 156.336 401.776 156.152 402.467 155.674C403.158 155.197 403.646 154.462 403.831 153.623C404.152 151.974 402.976 149.978 401.25 149.946C400.495 149.952 399.763 150.216 399.167 150.696C398.571 151.176 398.144 151.846 397.951 152.603C397.617 153.771 399.374 154.271 399.708 153.103C399.764 152.846 399.881 152.607 400.049 152.409C400.216 152.21 400.429 152.059 400.668 151.967C400.838 151.896 401.023 151.873 401.204 151.901C401.385 151.928 401.556 152.006 401.698 152.125C401.841 152.244 401.951 152.4 402.015 152.578C402.08 152.756 402.098 152.948 402.067 153.135C401.937 154.643 399.356 154.765 399.708 153.103C399.956 151.916 398.198 151.409 397.945 152.603Z" fill="#DD7466"/>
<path d="M401.615 150.408C401.312 150.408 401.052 150.408 400.86 150.703C400.696 151.156 400.618 151.638 400.631 152.121C400.526 153.039 400.414 154.278 401.033 155.028C401.429 155.516 402.104 154.817 401.708 154.329C401.411 153.97 401.504 153.09 401.535 152.635C401.535 152.34 401.59 152.038 401.628 151.743L401.702 151.185C401.429 151.377 401.405 151.448 401.615 151.396C402.234 151.339 402.234 150.344 401.615 150.408V150.408Z" fill="#DD7466"/>
<path d="M440.093 183.252C440.145 183.855 440.028 184.46 439.757 184.996C439.486 185.532 439.072 185.976 438.564 186.274C438.1 186.593 437.579 186.812 437.032 186.916C436.486 187.021 435.924 187.01 435.381 186.885C434.838 186.759 434.326 186.52 433.874 186.184C433.422 185.848 433.041 185.42 432.752 184.927C431.05 182.052 426.922 178.869 423.673 181.75C421.246 183.894 423.821 185.485 425.771 187.757C427.72 190.029 428.543 195.297 425.43 198.596C423.605 200.521 420.832 202.446 416.629 203.884C403.094 208.568 399.696 191.229 398.21 186.839C396.725 182.45 408.156 182.161 408.342 186.839C408.528 191.517 411.82 197.216 416.233 194.29C418.709 192.64 417.019 189.355 415.063 186.807C413.85 185.253 413.245 183.283 413.368 181.288C413.492 179.292 414.336 177.418 415.732 176.039L415.998 175.808C418.498 173.705 421.572 172.47 424.785 172.275C427.999 172.081 431.19 172.937 433.909 174.723C436.812 176.648 439.61 179.421 440.093 183.252Z" fill="#E86E62"/>
<path d="M453.796 190.305C453.895 200.912 449.352 216.154 447.018 221.871C446.713 222.62 446.21 223.265 445.567 223.731C444.925 224.198 444.169 224.467 443.385 224.509C440.823 224.65 437.246 224.387 436.738 221.942C436.2 219.33 437.821 213.895 439.387 210.596C440.006 209.313 439.913 208.029 438.694 207.291C438.298 207.041 437.215 206.418 436.837 206.162C436.356 205.81 435.777 205.631 435.189 205.65C434.6 205.67 434.034 205.888 433.576 206.271C430.227 209.056 424.174 215.621 421.439 215.435C419.637 215.307 417.905 214.017 417.013 213.458C416.445 213.084 416.029 212.508 415.841 211.839C415.653 211.169 415.707 210.451 415.992 209.82C419.532 202.433 442.606 188.989 444.926 187.629C444.939 187.629 453.727 182.347 453.796 190.305Z" fill="#E86E62"/>
<path d="M474.029 221.57C474.423 222.18 474.647 222.892 474.675 223.626C474.704 224.359 474.536 225.087 474.19 225.728C473.798 226.472 473.239 227.107 472.56 227.579C471.881 228.052 471.103 228.348 470.291 228.443C461.582 229.585 455.95 227.23 453.357 225.722C452.658 225.323 452.065 224.75 451.633 224.054C451.201 223.358 450.943 222.562 450.881 221.737C450.324 213.901 456.656 196.157 458.766 190.876C458.962 190.382 459.29 189.956 459.711 189.648C460.131 189.34 460.628 189.162 461.143 189.137C462.964 189.062 464.783 189.334 466.509 189.939C467.065 190.163 467.517 190.598 467.774 191.156C468.03 191.715 468.072 192.353 467.889 192.942C466.367 197.806 461.57 213.535 461.57 218.194C461.57 220.46 467.326 220.402 471.293 220.12C471.833 220.08 472.374 220.194 472.856 220.45C473.338 220.705 473.744 221.093 474.029 221.57V221.57Z" fill="#E86E62"/>
<path d="M479.277 228.571C478.853 228.618 478.423 228.572 478.018 228.434C477.612 228.297 477.239 228.072 476.923 227.774C476.607 227.477 476.356 227.113 476.186 226.707C476.015 226.301 475.93 225.863 475.935 225.42C476.009 217.026 476.405 195.483 478.528 192.743C481.171 189.336 484.03 190.555 485.695 191.774C487.36 192.993 491.03 198.583 491.03 198.583C491.03 198.583 492.101 191.524 493.438 189.239C494.133 188.136 495.195 187.336 496.422 186.993C497.649 186.65 498.955 186.787 500.091 187.378C502.307 188.61 510.44 211.251 510.18 215.467C509.92 219.683 506.324 222.212 504.455 221.57C502.585 220.928 498.327 204.955 498.327 204.955C498.327 204.955 496 212.014 492.435 212.29C488.87 212.566 486.71 208.735 485.788 207.163C485.788 207.163 485.955 222.911 484.971 225.914C484.414 227.609 481.623 228.295 479.277 228.571Z" fill="#E86E62"/>
<path d="M515.304 179.536C514.321 178.784 513.161 178.319 511.946 178.192C510.73 178.064 509.504 178.278 508.396 178.811C507.287 179.344 506.338 180.176 505.646 181.221C504.955 182.265 504.548 183.483 504.467 184.747C504.244 188.367 504.77 193.09 507.072 198.942C510.736 208.228 515.681 210.166 518.956 210.275C520.022 210.302 521.077 210.043 522.018 209.522C522.96 209.001 523.755 208.237 524.328 207.304C526.358 204.095 528.604 197.633 523.201 188.79C521.132 185.234 518.456 182.099 515.304 179.536Z" fill="#E86E62"/>
<path d="M516.597 172.862C516.597 172.862 527.843 195.445 529.842 195.323C531.327 195.214 532.553 190.574 533.085 188.212C533.275 187.361 533.154 186.467 532.744 185.703L528.443 178.574C528.443 178.574 533.722 182.302 534.428 180.736C535.133 179.17 536.557 169.378 535.616 167.401C534.675 165.425 527.149 153.719 525.15 156.28C523.151 158.84 522.458 162.126 523.046 163.981C523.634 165.835 528.561 171.797 528.561 171.797C528.561 171.797 520.737 166.945 519.326 167.716C517.915 168.486 516.578 171.059 516.597 172.862Z" fill="#E86E62"/>
<path d="M531.068 152.044C528.778 153.873 530.034 157.05 531.953 157.871C533.871 158.693 534.558 156.626 534.558 155.022C534.558 153.418 532.534 150.876 531.068 152.044Z" fill="#E86E62"/>
<path d="M413.214 207.079C407.93 216.074 405.221 226.441 405.403 236.971C405.459 240.18 405.805 243.389 407.056 246.334C406.839 240.591 411.233 235.04 416.711 234.141C414.817 222.449 413.072 219.106 413.858 207.272" fill="#DD7466"/>
<path d="M442.699 204.359C444.419 202.003 445.106 199.391 446.109 196.626C446.179 196.469 446.211 196.297 446.202 196.125C446.127 195.483 445.236 195.483 444.667 195.734C442.649 196.581 439.53 198.884 438.478 200.867C438.465 200.848 442.785 201.939 442.699 204.359Z" fill="white"/>
<path d="M514.103 189.31C513.23 188.771 512.543 189.688 512.729 191.177C513.032 193.609 513.812 197.158 515.774 199.276C518.986 202.741 519.673 199.918 518.249 194.88C517.604 192.542 516.121 190.549 514.103 189.31V189.31Z" fill="white"/>
<path d="M512.463 173.536C512.66 173.536 512.849 173.455 512.989 173.311C513.128 173.166 513.206 172.97 513.206 172.766C513.206 172.562 513.128 172.366 512.989 172.221C512.849 172.077 512.66 171.996 512.463 171.996C512.266 171.996 512.078 172.077 511.938 172.221C511.799 172.366 511.721 172.562 511.721 172.766C511.721 172.97 511.799 173.166 511.938 173.311C512.078 173.455 512.266 173.536 512.463 173.536V173.536Z" fill="#DD7466"/>
<path d="M468.718 197.883C468.904 197.866 469.077 197.777 469.203 197.634C469.329 197.491 469.399 197.304 469.399 197.11C469.399 196.916 469.329 196.73 469.203 196.587C469.077 196.444 468.904 196.355 468.718 196.337C468.532 196.355 468.359 196.444 468.233 196.587C468.107 196.73 468.037 196.916 468.037 197.11C468.037 197.304 468.107 197.491 468.233 197.634C468.359 197.777 468.532 197.866 468.718 197.883V197.883Z" fill="#DD7466"/>
<path d="M472.834 203.178C473.02 203.16 473.193 203.071 473.319 202.928C473.445 202.785 473.515 202.598 473.515 202.404C473.515 202.211 473.445 202.024 473.319 201.881C473.193 201.738 473.02 201.649 472.834 201.631C472.648 201.649 472.475 201.738 472.349 201.881C472.223 202.024 472.153 202.211 472.153 202.404C472.153 202.598 472.223 202.785 472.349 202.928C472.475 203.071 472.648 203.16 472.834 203.178V203.178Z" fill="#DD7466"/>
<path d="M467.443 204.025C467.629 204.007 467.802 203.918 467.928 203.775C468.054 203.632 468.123 203.445 468.123 203.252C468.123 203.058 468.054 202.871 467.928 202.728C467.802 202.585 467.629 202.496 467.443 202.478C467.257 202.496 467.084 202.585 466.958 202.728C466.832 202.871 466.762 203.058 466.762 203.252C466.762 203.445 466.832 203.632 466.958 203.775C467.084 203.918 467.257 204.007 467.443 204.025V204.025Z" fill="#DD7466"/>
<path d="M475.197 196.985C475.384 196.967 475.557 196.878 475.682 196.735C475.808 196.592 475.878 196.405 475.878 196.212C475.878 196.018 475.808 195.831 475.682 195.688C475.557 195.545 475.384 195.456 475.197 195.438C475.011 195.456 474.838 195.545 474.712 195.688C474.586 195.831 474.517 196.018 474.517 196.212C474.517 196.405 474.586 196.592 474.712 196.735C474.838 196.878 475.011 196.967 475.197 196.985V196.985Z" fill="#DD7466"/>
<path d="M475.266 192.133C475.452 192.116 475.625 192.027 475.751 191.884C475.877 191.741 475.947 191.554 475.947 191.36C475.947 191.166 475.877 190.98 475.751 190.837C475.625 190.694 475.452 190.605 475.266 190.587C475.08 190.605 474.907 190.694 474.781 190.837C474.655 190.98 474.585 191.166 474.585 191.36C474.585 191.554 474.655 191.741 474.781 191.884C474.907 192.027 475.08 192.116 475.266 192.133V192.133Z" fill="#DD7466"/>
<path d="M469.968 191.749C470.154 191.731 470.327 191.642 470.453 191.499C470.579 191.356 470.649 191.169 470.649 190.975C470.649 190.781 470.579 190.595 470.453 190.452C470.327 190.309 470.154 190.219 469.968 190.202C469.782 190.219 469.609 190.309 469.483 190.452C469.357 190.595 469.287 190.781 469.287 190.975C469.287 191.169 469.357 191.356 469.483 191.499C469.609 191.642 469.782 191.731 469.968 191.749V191.749Z" fill="#DD7466"/>
<path d="M460.251 190.613C460.448 190.613 460.637 190.531 460.777 190.387C460.916 190.243 460.994 190.047 460.994 189.842C460.994 189.638 460.916 189.442 460.777 189.298C460.637 189.154 460.448 189.072 460.251 189.072C460.054 189.072 459.866 189.154 459.726 189.298C459.587 189.442 459.509 189.638 459.509 189.842C459.509 190.047 459.587 190.243 459.726 190.387C459.866 190.531 460.054 190.613 460.251 190.613V190.613Z" fill="#DD7466"/>
<path d="M464.683 192.012C464.869 191.994 465.042 191.905 465.168 191.762C465.294 191.619 465.364 191.432 465.364 191.238C465.364 191.045 465.294 190.858 465.168 190.715C465.042 190.572 464.869 190.483 464.683 190.465C464.497 190.483 464.324 190.572 464.198 190.715C464.072 190.858 464.002 191.045 464.002 191.238C464.002 191.432 464.072 191.619 464.198 191.762C464.324 191.905 464.497 191.994 464.683 192.012V192.012Z" fill="#DD7466"/>
<path d="M457.07 195.945C457.256 195.928 457.429 195.839 457.555 195.696C457.681 195.553 457.75 195.366 457.75 195.172C457.75 194.978 457.681 194.792 457.555 194.649C457.429 194.505 457.256 194.416 457.07 194.399C456.883 194.416 456.71 194.505 456.584 194.649C456.459 194.792 456.389 194.978 456.389 195.172C456.389 195.366 456.459 195.553 456.584 195.696C456.71 195.839 456.883 195.928 457.07 195.945V195.945Z" fill="#DD7466"/>
<path d="M455.72 192.454C455.917 192.454 456.106 192.373 456.245 192.229C456.385 192.084 456.463 191.889 456.463 191.684C456.463 191.48 456.385 191.284 456.245 191.14C456.106 190.995 455.917 190.914 455.72 190.914C455.523 190.914 455.334 190.995 455.195 191.14C455.056 191.284 454.978 191.48 454.978 191.684C454.978 191.889 455.056 192.084 455.195 192.229C455.334 192.373 455.523 192.454 455.72 192.454V192.454Z" fill="#DD7466"/>
<path d="M455.312 188.341C455.509 188.341 455.698 188.26 455.837 188.115C455.976 187.971 456.055 187.775 456.055 187.571C456.055 187.367 455.976 187.171 455.837 187.026C455.698 186.882 455.509 186.801 455.312 186.801C455.115 186.801 454.926 186.882 454.787 187.026C454.648 187.171 454.569 187.367 454.569 187.571C454.569 187.775 454.648 187.971 454.787 188.115C454.926 188.26 455.115 188.341 455.312 188.341V188.341Z" fill="#DD7466"/>
<path d="M453.802 196.356C453.988 196.338 454.161 196.249 454.287 196.106C454.413 195.963 454.483 195.776 454.483 195.583C454.483 195.389 454.413 195.202 454.287 195.059C454.161 194.916 453.988 194.827 453.802 194.809C453.616 194.827 453.443 194.916 453.317 195.059C453.191 195.202 453.121 195.389 453.121 195.583C453.121 195.776 453.191 195.963 453.317 196.106C453.443 196.249 453.616 196.338 453.802 196.356Z" fill="#DD7466"/>
<path d="M445.7 186.165C445.886 186.148 446.059 186.059 446.185 185.916C446.311 185.773 446.381 185.586 446.381 185.392C446.381 185.198 446.311 185.012 446.185 184.869C446.059 184.725 445.886 184.636 445.7 184.619C445.514 184.636 445.341 184.725 445.215 184.869C445.089 185.012 445.02 185.198 445.02 185.392C445.02 185.586 445.089 185.773 445.215 185.916C445.341 186.059 445.514 186.148 445.7 186.165V186.165Z" fill="#DD7466"/>
<path d="M440.607 188.354C440.804 188.354 440.993 188.273 441.132 188.128C441.271 187.984 441.35 187.788 441.35 187.584C441.35 187.379 441.271 187.183 441.132 187.039C440.993 186.895 440.804 186.813 440.607 186.813C440.41 186.813 440.221 186.895 440.082 187.039C439.943 187.183 439.864 187.379 439.864 187.584C439.864 187.788 439.943 187.984 440.082 188.128C440.221 188.273 440.41 188.354 440.607 188.354V188.354Z" fill="#DD7466"/>
<path d="M441.306 184.118C441.492 184.101 441.665 184.012 441.791 183.869C441.917 183.725 441.987 183.539 441.987 183.345C441.987 183.151 441.917 182.965 441.791 182.821C441.665 182.678 441.492 182.589 441.306 182.572C441.12 182.589 440.947 182.678 440.821 182.821C440.695 182.965 440.625 183.151 440.625 183.345C440.625 183.539 440.695 183.725 440.821 183.869C440.947 184.012 441.12 184.101 441.306 184.118Z" fill="#DD7466"/>
<path d="M432.115 189.105C432.302 189.087 432.475 188.998 432.601 188.855C432.727 188.712 432.796 188.525 432.796 188.331C432.796 188.137 432.727 187.951 432.601 187.808C432.475 187.665 432.302 187.576 432.115 187.558C431.929 187.576 431.756 187.665 431.63 187.808C431.504 187.951 431.435 188.137 431.435 188.331C431.435 188.525 431.504 188.712 431.63 188.855C431.756 188.998 431.929 189.087 432.115 189.105V189.105Z" fill="#DD7466"/>
<path d="M422.51 170.148C422.696 170.13 422.869 170.041 422.995 169.898C423.121 169.755 423.191 169.568 423.191 169.374C423.191 169.181 423.121 168.994 422.995 168.851C422.869 168.708 422.696 168.619 422.51 168.601C422.324 168.619 422.151 168.708 422.025 168.851C421.899 168.994 421.829 169.181 421.829 169.374C421.829 169.568 421.899 169.755 422.025 169.898C422.151 170.041 422.324 170.13 422.51 170.148Z" fill="#DD7466"/>
<path d="M419.477 166.9C419.674 166.9 419.863 166.819 420.002 166.675C420.142 166.531 420.22 166.335 420.22 166.13C420.22 165.926 420.142 165.73 420.002 165.586C419.863 165.441 419.674 165.36 419.477 165.36C419.28 165.36 419.091 165.441 418.952 165.586C418.813 165.73 418.734 165.926 418.734 166.13C418.734 166.335 418.813 166.531 418.952 166.675C419.091 166.819 419.28 166.9 419.477 166.9V166.9Z" fill="#DD7466"/>
<path d="M436.342 189.246C436.528 189.228 436.701 189.139 436.827 188.996C436.953 188.853 437.023 188.666 437.023 188.472C437.023 188.279 436.953 188.092 436.827 187.949C436.701 187.806 436.528 187.717 436.342 187.699C436.156 187.717 435.983 187.806 435.857 187.949C435.731 188.092 435.661 188.279 435.661 188.472C435.661 188.666 435.731 188.853 435.857 188.996C435.983 189.139 436.156 189.228 436.342 189.246V189.246Z" fill="#DD7466"/>
<path d="M419.477 171.945C419.674 171.945 419.863 171.863 420.002 171.719C420.142 171.575 420.22 171.379 420.22 171.174C420.22 170.97 420.142 170.774 420.002 170.63C419.863 170.486 419.674 170.404 419.477 170.404C419.28 170.404 419.091 170.486 418.952 170.63C418.813 170.774 418.734 170.97 418.734 171.174C418.734 171.379 418.813 171.575 418.952 171.719C419.091 171.863 419.28 171.945 419.477 171.945V171.945Z" fill="#DD7466"/>
<path d="M426.799 184.561C426.985 184.543 427.158 184.454 427.284 184.311C427.41 184.168 427.48 183.981 427.48 183.788C427.48 183.594 427.41 183.407 427.284 183.264C427.158 183.121 426.985 183.032 426.799 183.014C426.613 183.032 426.44 183.121 426.314 183.264C426.188 183.407 426.118 183.594 426.118 183.788C426.118 183.981 426.188 184.168 426.314 184.311C426.44 184.454 426.613 184.543 426.799 184.561V184.561Z" fill="#DD7466"/>
<path d="M475.57 199.963C475.756 199.945 475.929 199.856 476.055 199.713C476.181 199.57 476.25 199.383 476.25 199.189C476.25 198.996 476.181 198.809 476.055 198.666C475.929 198.523 475.756 198.434 475.57 198.416C475.383 198.434 475.21 198.523 475.084 198.666C474.959 198.809 474.889 198.996 474.889 199.189C474.889 199.383 474.959 199.57 475.084 199.713C475.21 199.856 475.383 199.945 475.57 199.963V199.963Z" fill="#DD7466"/>
<path d="M481.641 191.235C481.838 191.235 482.027 191.154 482.166 191.01C482.306 190.865 482.384 190.669 482.384 190.465C482.384 190.261 482.306 190.065 482.166 189.92C482.027 189.776 481.838 189.695 481.641 189.695C481.444 189.695 481.255 189.776 481.116 189.92C480.977 190.065 480.898 190.261 480.898 190.465C480.898 190.669 480.977 190.865 481.116 191.01C481.255 191.154 481.444 191.235 481.641 191.235V191.235Z" fill="#DD7466"/>
<path d="M477.995 193.276C478.181 193.258 478.354 193.169 478.48 193.026C478.606 192.883 478.676 192.696 478.676 192.503C478.676 192.309 478.606 192.122 478.48 191.979C478.354 191.836 478.181 191.747 477.995 191.729C477.809 191.747 477.636 191.836 477.51 191.979C477.384 192.122 477.314 192.309 477.314 192.503C477.314 192.696 477.384 192.883 477.51 193.026C477.636 193.169 477.809 193.258 477.995 193.276Z" fill="#DD7466"/>
<path d="M486.159 190.337C486.356 190.337 486.545 190.256 486.684 190.111C486.823 189.967 486.901 189.771 486.901 189.567C486.901 189.362 486.823 189.166 486.684 189.022C486.545 188.878 486.356 188.797 486.159 188.797C485.962 188.797 485.773 188.878 485.634 189.022C485.494 189.166 485.416 189.362 485.416 189.567C485.416 189.771 485.494 189.967 485.634 190.111C485.773 190.256 485.962 190.337 486.159 190.337V190.337Z" fill="#DD7466"/>
<path d="M489.798 194.803C489.984 194.786 490.157 194.696 490.283 194.553C490.409 194.41 490.479 194.224 490.479 194.03C490.479 193.836 490.409 193.649 490.283 193.506C490.157 193.363 489.984 193.274 489.798 193.257C489.612 193.274 489.439 193.363 489.313 193.506C489.187 193.649 489.117 193.836 489.117 194.03C489.117 194.224 489.187 194.41 489.313 194.553C489.439 194.696 489.612 194.786 489.798 194.803V194.803Z" fill="#DD7466"/>
<path d="M491.507 189.907C491.693 189.889 491.866 189.8 491.992 189.657C492.118 189.514 492.188 189.327 492.188 189.133C492.188 188.94 492.118 188.753 491.992 188.61C491.866 188.467 491.693 188.378 491.507 188.36C491.321 188.378 491.148 188.467 491.022 188.61C490.896 188.753 490.826 188.94 490.826 189.133C490.826 189.327 490.896 189.514 491.022 189.657C491.148 189.8 491.321 189.889 491.507 189.907Z" fill="#DD7466"/>
<path d="M488.715 191.55C488.912 191.55 489.101 191.468 489.24 191.324C489.38 191.18 489.458 190.984 489.458 190.779C489.458 190.575 489.38 190.379 489.24 190.235C489.101 190.091 488.912 190.009 488.715 190.009C488.518 190.009 488.329 190.091 488.19 190.235C488.051 190.379 487.973 190.575 487.973 190.779C487.973 190.984 488.051 191.18 488.19 191.324C488.329 191.468 488.518 191.55 488.715 191.55V191.55Z" fill="#DD7466"/>
<path d="M493.927 186.634C494.113 186.616 494.286 186.527 494.412 186.384C494.538 186.241 494.608 186.054 494.608 185.861C494.608 185.667 494.538 185.48 494.412 185.337C494.286 185.194 494.113 185.105 493.927 185.087C493.741 185.105 493.568 185.194 493.442 185.337C493.316 185.48 493.246 185.667 493.246 185.861C493.246 186.054 493.316 186.241 493.442 186.384C493.568 186.527 493.741 186.616 493.927 186.634V186.634Z" fill="#DD7466"/>
<path d="M497.701 186.73C497.888 186.712 498.061 186.623 498.187 186.48C498.312 186.337 498.382 186.151 498.382 185.957C498.382 185.763 498.312 185.576 498.187 185.433C498.061 185.29 497.888 185.201 497.701 185.184C497.515 185.201 497.342 185.29 497.216 185.433C497.09 185.576 497.021 185.763 497.021 185.957C497.021 186.151 497.09 186.337 497.216 186.48C497.342 186.623 497.515 186.712 497.701 186.73V186.73Z" fill="#DD7466"/>
<path d="M499.366 183.951C499.553 183.934 499.726 183.845 499.851 183.702C499.977 183.559 500.047 183.372 500.047 183.178C500.047 182.984 499.977 182.798 499.851 182.655C499.726 182.511 499.553 182.422 499.366 182.405C499.18 182.422 499.007 182.511 498.881 182.655C498.755 182.798 498.686 182.984 498.686 183.178C498.686 183.372 498.755 183.559 498.881 183.702C499.007 183.845 499.18 183.934 499.366 183.951V183.951Z" fill="#DD7466"/>
<path d="M502.332 188.354C502.529 188.354 502.717 188.273 502.857 188.128C502.996 187.984 503.074 187.788 503.074 187.584C503.074 187.379 502.996 187.183 502.857 187.039C502.717 186.895 502.529 186.813 502.332 186.813C502.135 186.813 501.946 186.895 501.806 187.039C501.667 187.183 501.589 187.379 501.589 187.584C501.589 187.788 501.667 187.984 501.806 188.128C501.946 188.273 502.135 188.354 502.332 188.354V188.354Z" fill="#DD7466"/>
<path d="M503.365 182.148C503.562 182.148 503.751 182.067 503.89 181.923C504.029 181.778 504.107 181.582 504.107 181.378C504.107 181.174 504.029 180.978 503.89 180.834C503.751 180.689 503.562 180.608 503.365 180.608C503.168 180.608 502.979 180.689 502.84 180.834C502.7 180.978 502.622 181.174 502.622 181.378C502.622 181.582 502.7 181.778 502.84 181.923C502.979 182.067 503.168 182.148 503.365 182.148V182.148Z" fill="#DD7466"/>
<path d="M506.435 179.267C506.621 179.249 506.794 179.16 506.92 179.017C507.046 178.874 507.116 178.687 507.116 178.493C507.116 178.3 507.046 178.113 506.92 177.97C506.794 177.827 506.621 177.738 506.435 177.72C506.249 177.738 506.076 177.827 505.95 177.97C505.824 178.113 505.754 178.3 505.754 178.493C505.754 178.687 505.824 178.874 505.95 179.017C506.076 179.16 506.249 179.249 506.435 179.267V179.267Z" fill="#DD7466"/>
<path d="M511.243 176.95C511.429 176.933 511.603 176.843 511.728 176.7C511.854 176.557 511.924 176.371 511.924 176.177C511.924 175.983 511.854 175.796 511.728 175.653C511.603 175.51 511.429 175.421 511.243 175.404C511.057 175.421 510.884 175.51 510.758 175.653C510.632 175.796 510.563 175.983 510.562 176.177C510.563 176.371 510.632 176.557 510.758 176.7C510.884 176.843 511.057 176.933 511.243 176.95V176.95Z" fill="#DD7466"/>
<path d="M516.437 177.932C516.623 177.914 516.796 177.825 516.922 177.682C517.048 177.539 517.118 177.352 517.118 177.159C517.118 176.965 517.048 176.778 516.922 176.635C516.796 176.492 516.623 176.403 516.437 176.385C516.251 176.403 516.078 176.492 515.952 176.635C515.826 176.778 515.756 176.965 515.756 177.159C515.756 177.352 515.826 177.539 515.952 177.682C516.078 177.825 516.251 177.914 516.437 177.932V177.932Z" fill="#DD7466"/>
<path d="M515.916 170.231C516.113 170.231 516.302 170.15 516.442 170.006C516.581 169.861 516.659 169.665 516.659 169.461C516.659 169.257 516.581 169.061 516.442 168.917C516.302 168.772 516.113 168.691 515.916 168.691C515.72 168.691 515.531 168.772 515.391 168.917C515.252 169.061 515.174 169.257 515.174 169.461C515.174 169.665 515.252 169.861 515.391 170.006C515.531 170.15 515.72 170.231 515.916 170.231V170.231Z" fill="#DD7466"/>
<path d="M517.6 166.682C517.786 166.665 517.959 166.576 518.085 166.433C518.211 166.289 518.281 166.103 518.281 165.909C518.281 165.715 518.211 165.529 518.085 165.385C517.959 165.242 517.786 165.153 517.6 165.136C517.414 165.153 517.241 165.242 517.115 165.385C516.989 165.529 516.919 165.715 516.919 165.909C516.919 166.103 516.989 166.289 517.115 166.433C517.241 166.576 517.414 166.665 517.6 166.682V166.682Z" fill="#DD7466"/>
<path d="M521.375 167.337C521.561 167.319 521.734 167.23 521.86 167.087C521.986 166.944 522.056 166.757 522.056 166.564C522.056 166.37 521.986 166.183 521.86 166.04C521.734 165.897 521.561 165.808 521.375 165.79C521.189 165.808 521.016 165.897 520.89 166.04C520.764 166.183 520.694 166.37 520.694 166.564C520.694 166.757 520.764 166.944 520.89 167.087C521.016 167.23 521.189 167.319 521.375 167.337Z" fill="#DD7466"/>
<path d="M523.343 159.816C523.54 159.816 523.729 159.735 523.868 159.59C524.008 159.446 524.086 159.25 524.086 159.046C524.086 158.841 524.008 158.646 523.868 158.501C523.729 158.357 523.54 158.276 523.343 158.276C523.146 158.276 522.957 158.357 522.818 158.501C522.679 158.646 522.601 158.841 522.601 159.046C522.601 159.25 522.679 159.446 522.818 159.59C522.957 159.735 523.146 159.816 523.343 159.816V159.816Z" fill="#DD7466"/>
<path d="M524.681 156.017C524.867 155.999 525.04 155.91 525.166 155.767C525.292 155.624 525.362 155.437 525.362 155.244C525.362 155.05 525.292 154.863 525.166 154.72C525.04 154.577 524.867 154.488 524.681 154.47C524.495 154.488 524.322 154.577 524.196 154.72C524.07 154.863 524 155.05 524 155.244C524 155.437 524.07 155.624 524.196 155.767C524.322 155.91 524.495 155.999 524.681 156.017Z" fill="#DD7466"/>
<path d="M524.811 151.743C524.997 151.725 525.17 151.636 525.296 151.493C525.422 151.35 525.492 151.163 525.492 150.969C525.492 150.776 525.422 150.589 525.296 150.446C525.17 150.303 524.997 150.214 524.811 150.196C524.625 150.214 524.452 150.303 524.326 150.446C524.2 150.589 524.13 150.776 524.13 150.969C524.13 151.163 524.2 151.35 524.326 151.493C524.452 151.636 524.625 151.725 524.811 151.743Z" fill="#DD7466"/>
<path d="M526.877 152.737C527.063 152.72 527.236 152.631 527.362 152.488C527.488 152.345 527.558 152.158 527.558 151.964C527.558 151.77 527.488 151.584 527.362 151.441C527.236 151.298 527.063 151.209 526.877 151.191C526.691 151.209 526.518 151.298 526.392 151.441C526.266 151.584 526.196 151.77 526.196 151.964C526.196 152.158 526.266 152.345 526.392 152.488C526.518 152.631 526.691 152.72 526.877 152.737Z" fill="#DD7466"/>
<path d="M525.28 147.726C525.467 147.708 525.64 147.619 525.766 147.476C525.892 147.333 525.961 147.146 525.961 146.952C525.961 146.759 525.892 146.572 525.766 146.429C525.64 146.286 525.467 146.197 525.28 146.179C525.094 146.197 524.921 146.286 524.795 146.429C524.669 146.572 524.6 146.759 524.6 146.952C524.6 147.146 524.669 147.333 524.795 147.476C524.921 147.619 525.094 147.708 525.28 147.726Z" fill="#DD7466"/>
<path d="M527.552 148.951C527.738 148.934 527.911 148.845 528.037 148.702C528.163 148.558 528.233 148.372 528.233 148.178C528.233 147.984 528.163 147.797 528.037 147.654C527.911 147.511 527.738 147.422 527.552 147.405C527.366 147.422 527.193 147.511 527.067 147.654C526.941 147.797 526.871 147.984 526.871 148.178C526.871 148.372 526.941 148.558 527.067 148.702C527.193 148.845 527.366 148.934 527.552 148.951Z" fill="#DD7466"/>
<path d="M525.665 144.626C525.862 144.626 526.05 144.545 526.19 144.4C526.329 144.256 526.407 144.06 526.407 143.856C526.407 143.652 526.329 143.456 526.19 143.311C526.05 143.167 525.862 143.086 525.665 143.086C525.468 143.086 525.279 143.167 525.139 143.311C525 143.456 524.922 143.652 524.922 143.856C524.922 144.06 525 144.256 525.139 144.4C525.279 144.545 525.468 144.626 525.665 144.626V144.626Z" fill="#DD7466"/>
<path d="M520.131 164.058C520.328 164.058 520.517 163.977 520.657 163.832C520.796 163.688 520.874 163.492 520.874 163.288C520.874 163.083 520.796 162.887 520.657 162.743C520.517 162.599 520.328 162.517 520.131 162.517C519.934 162.517 519.745 162.599 519.606 162.743C519.467 162.887 519.389 163.083 519.389 163.288C519.389 163.492 519.467 163.688 519.606 163.832C519.745 163.977 519.934 164.058 520.131 164.058Z" fill="#DD7466"/>
<path d="M514.772 175.93C514.958 175.912 515.131 175.823 515.257 175.68C515.383 175.537 515.453 175.35 515.453 175.156C515.453 174.963 515.383 174.776 515.257 174.633C515.131 174.49 514.958 174.401 514.772 174.383C514.586 174.401 514.413 174.49 514.287 174.633C514.161 174.776 514.091 174.963 514.091 175.156C514.091 175.35 514.161 175.537 514.287 175.68C514.413 175.823 514.586 175.912 514.772 175.93V175.93Z" fill="#DD7466"/>
<path d="M502.035 185.331C502.232 185.331 502.421 185.25 502.56 185.106C502.699 184.961 502.777 184.765 502.777 184.561C502.777 184.357 502.699 184.161 502.56 184.017C502.421 183.872 502.232 183.791 502.035 183.791C501.838 183.791 501.649 183.872 501.51 184.017C501.37 184.161 501.292 184.357 501.292 184.561C501.292 184.765 501.37 184.961 501.51 185.106C501.649 185.25 501.838 185.331 502.035 185.331V185.331Z" fill="#DD7466"/>
<path d="M469.597 201.086C469.783 201.068 469.956 200.979 470.082 200.836C470.208 200.693 470.278 200.506 470.278 200.312C470.278 200.119 470.208 199.932 470.082 199.789C469.956 199.646 469.783 199.557 469.597 199.539C469.411 199.557 469.238 199.646 469.112 199.789C468.986 199.932 468.916 200.119 468.916 200.312C468.916 200.506 468.986 200.693 469.112 200.836C469.238 200.979 469.411 201.068 469.597 201.086V201.086Z" fill="#DD7466"/>
<path d="M472.171 195.137C472.357 195.119 472.53 195.03 472.656 194.887C472.782 194.744 472.852 194.557 472.852 194.364C472.852 194.17 472.782 193.983 472.656 193.84C472.53 193.697 472.357 193.608 472.171 193.59C471.985 193.608 471.812 193.697 471.686 193.84C471.56 193.983 471.49 194.17 471.49 194.364C471.49 194.557 471.56 194.744 471.686 194.887C471.812 195.03 471.985 195.119 472.171 195.137V195.137Z" fill="#DD7466"/>
<path d="M456.079 200.187C456.265 200.17 456.438 200.081 456.564 199.937C456.69 199.794 456.76 199.608 456.76 199.414C456.76 199.22 456.69 199.033 456.564 198.89C456.438 198.747 456.265 198.658 456.079 198.641C455.893 198.658 455.72 198.747 455.594 198.89C455.468 199.033 455.398 199.22 455.398 199.414C455.398 199.608 455.468 199.794 455.594 199.937C455.72 200.081 455.893 200.17 456.079 200.187Z" fill="#DD7466"/>
<path d="M435.655 192.737C435.852 192.737 436.041 192.656 436.18 192.511C436.319 192.367 436.398 192.171 436.398 191.967C436.398 191.762 436.319 191.567 436.18 191.422C436.041 191.278 435.852 191.197 435.655 191.197C435.458 191.197 435.269 191.278 435.13 191.422C434.99 191.567 434.912 191.762 434.912 191.967C434.912 192.171 434.99 192.367 435.13 192.511C435.269 192.656 435.458 192.737 435.655 192.737V192.737Z" fill="#DD7466"/>
<path d="M417.706 175.32C417.892 175.303 418.065 175.213 418.191 175.07C418.317 174.927 418.387 174.741 418.387 174.547C418.387 174.353 418.317 174.166 418.191 174.023C418.065 173.88 417.892 173.791 417.706 173.773C417.52 173.791 417.347 173.88 417.221 174.023C417.095 174.166 417.025 174.353 417.025 174.547C417.025 174.741 417.095 174.927 417.221 175.07C417.347 175.213 417.52 175.303 417.706 175.32V175.32Z" fill="#DD7466"/>
<path d="M430.704 184.118C430.89 184.101 431.063 184.012 431.189 183.869C431.315 183.725 431.385 183.539 431.385 183.345C431.385 183.151 431.315 182.965 431.189 182.821C431.063 182.678 430.89 182.589 430.704 182.572C430.518 182.589 430.345 182.678 430.219 182.821C430.093 182.965 430.023 183.151 430.023 183.345C430.023 183.539 430.093 183.725 430.219 183.869C430.345 184.012 430.518 184.101 430.704 184.118Z" fill="#DD7466"/>
<path d="M436.342 179.857C436.528 179.84 436.701 179.75 436.827 179.607C436.953 179.464 437.023 179.278 437.023 179.084C437.023 178.89 436.953 178.703 436.827 178.56C436.701 178.417 436.528 178.328 436.342 178.311C436.156 178.328 435.983 178.417 435.857 178.56C435.731 178.703 435.661 178.89 435.661 179.084C435.661 179.278 435.731 179.464 435.857 179.607C435.983 179.75 436.156 179.84 436.342 179.857V179.857Z" fill="#DD7466"/>
<path d="M450.027 187.141C450.213 187.123 450.386 187.034 450.512 186.891C450.638 186.748 450.707 186.561 450.707 186.368C450.707 186.174 450.638 185.987 450.512 185.844C450.386 185.701 450.213 185.612 450.027 185.594C449.841 185.612 449.668 185.701 449.542 185.844C449.416 185.987 449.346 186.174 449.346 186.368C449.346 186.561 449.416 186.748 449.542 186.891C449.668 187.034 449.841 187.123 450.027 187.141V187.141Z" fill="#DD7466"/>
<path d="M523.3 143.657C523.497 143.657 523.686 143.576 523.825 143.431C523.965 143.287 524.043 143.091 524.043 142.887C524.043 142.683 523.965 142.487 523.825 142.342C523.686 142.198 523.497 142.117 523.3 142.117C523.103 142.117 522.914 142.198 522.775 142.342C522.636 142.487 522.558 142.683 522.558 142.887C522.558 143.091 522.636 143.287 522.775 143.431C522.914 143.576 523.103 143.657 523.3 143.657V143.657Z" fill="#DD7466"/>
<path d="M524.501 140.506C524.698 140.506 524.887 140.425 525.027 140.28C525.166 140.136 525.244 139.94 525.244 139.736C525.244 139.532 525.166 139.336 525.027 139.191C524.887 139.047 524.698 138.966 524.501 138.966C524.304 138.966 524.116 139.047 523.976 139.191C523.837 139.336 523.759 139.532 523.759 139.736C523.759 139.94 523.837 140.136 523.976 140.28C524.116 140.425 524.304 140.506 524.501 140.506V140.506Z" fill="#DD7466"/>
<path d="M522.044 139.832C522.23 139.815 522.403 139.726 522.529 139.582C522.655 139.439 522.725 139.253 522.725 139.059C522.725 138.865 522.655 138.678 522.529 138.535C522.403 138.392 522.23 138.303 522.044 138.286C521.858 138.303 521.685 138.392 521.559 138.535C521.433 138.678 521.363 138.865 521.363 139.059C521.363 139.253 521.433 139.439 521.559 139.582C521.685 139.726 521.858 139.815 522.044 139.832Z" fill="#DD7466"/>
<path d="M425.889 173.023C426.075 173.005 426.248 172.916 426.374 172.773C426.5 172.63 426.57 172.443 426.57 172.249C426.57 172.056 426.5 171.869 426.374 171.726C426.248 171.583 426.075 171.494 425.889 171.476C425.703 171.494 425.53 171.583 425.404 171.726C425.278 171.869 425.208 172.056 425.208 172.249C425.208 172.443 425.278 172.63 425.404 172.773C425.53 172.916 425.703 173.005 425.889 173.023V173.023Z" fill="#DD7466"/>
<path d="M381.352 149.208C383.468 152.23 386.526 155.439 390.406 155.458C394.287 155.478 392.703 149.811 392.307 147.527C392.152 146.647 390.864 147.02 391.013 147.899C391.272 149.083 391.458 150.284 391.57 151.492C391.62 152.609 391.731 153.828 390.159 154.059C389.439 154.039 388.732 153.857 388.086 153.527C385.734 152.571 383.97 150.588 382.515 148.508C382.014 147.79 380.85 148.508 381.358 149.208H381.352Z" fill="#F9B6A9"/>
<path d="M387.379 154.605C388.267 155.725 389.31 156.703 390.474 157.506C391.353 158.109 392.585 158.982 393.711 158.789C396.385 158.327 393.593 153.796 392.845 152.712C392.349 151.993 391.186 152.712 391.687 153.411C392.25 154.204 392.716 155.066 393.074 155.978C393.129 156.119 393.575 157.088 393.47 157.262C393.216 157.653 392.69 157.262 392.362 157.056C390.804 156.222 389.431 155.059 388.333 153.642C387.782 152.956 386.841 153.944 387.386 154.624L387.379 154.605Z" fill="#F9B6A9"/>
<path d="M412.037 162.858C412.223 162.84 412.396 162.751 412.522 162.608C412.648 162.465 412.718 162.278 412.718 162.084C412.718 161.891 412.648 161.704 412.522 161.561C412.396 161.418 412.223 161.329 412.037 161.311C411.851 161.329 411.678 161.418 411.552 161.561C411.426 161.704 411.356 161.891 411.356 162.084C411.356 162.278 411.426 162.465 411.552 162.608C411.678 162.751 411.851 162.84 412.037 162.858V162.858Z" fill="#DD7466"/>
<path d="M412.037 156.485C412.223 156.468 412.396 156.378 412.522 156.235C412.648 156.092 412.718 155.906 412.718 155.712C412.718 155.518 412.648 155.331 412.522 155.188C412.396 155.045 412.223 154.956 412.037 154.939C411.851 154.956 411.678 155.045 411.552 155.188C411.426 155.331 411.356 155.518 411.356 155.712C411.356 155.906 411.426 156.092 411.552 156.235C411.678 156.378 411.851 156.468 412.037 156.485V156.485Z" fill="#DD7466"/>
<path d="M408.422 157.929C408.619 157.929 408.808 157.848 408.948 157.704C409.087 157.559 409.165 157.363 409.165 157.159C409.165 156.955 409.087 156.759 408.948 156.614C408.808 156.47 408.619 156.389 408.422 156.389C408.225 156.389 408.037 156.47 407.897 156.614C407.758 156.759 407.68 156.955 407.68 157.159C407.68 157.363 407.758 157.559 407.897 157.704C408.037 157.848 408.225 157.929 408.422 157.929V157.929Z" fill="#DD7466"/>
<path d="M407.984 152.718C408.17 152.701 408.343 152.612 408.469 152.468C408.595 152.325 408.664 152.139 408.664 151.945C408.664 151.751 408.595 151.564 408.469 151.421C408.343 151.278 408.17 151.189 407.984 151.172C407.798 151.189 407.625 151.278 407.499 151.421C407.373 151.564 407.303 151.751 407.303 151.945C407.303 152.139 407.373 152.325 407.499 152.468C407.625 152.612 407.798 152.701 407.984 152.718V152.718Z" fill="#DD7466"/>
<path d="M411.196 150.979C411.382 150.962 411.555 150.872 411.681 150.729C411.807 150.586 411.876 150.4 411.876 150.206C411.876 150.012 411.807 149.825 411.681 149.682C411.555 149.539 411.382 149.45 411.196 149.433C411.009 149.45 410.836 149.539 410.71 149.682C410.584 149.825 410.515 150.012 410.515 150.206C410.515 150.4 410.584 150.586 410.71 150.729C410.836 150.872 411.009 150.962 411.196 150.979V150.979Z" fill="#DD7466"/>
<path d="M405.607 148.078C405.804 148.078 405.993 147.997 406.132 147.853C406.271 147.709 406.35 147.513 406.35 147.308C406.35 147.104 406.271 146.908 406.132 146.764C405.993 146.619 405.804 146.538 405.607 146.538C405.41 146.538 405.221 146.619 405.082 146.764C404.943 146.908 404.864 147.104 404.864 147.308C404.864 147.513 404.943 147.709 405.082 147.853C405.221 147.997 405.41 148.078 405.607 148.078V148.078Z" fill="#DD7466"/>
<path d="M399.603 146.776C399.789 146.758 399.962 146.669 400.088 146.526C400.214 146.383 400.284 146.196 400.284 146.002C400.284 145.809 400.214 145.622 400.088 145.479C399.962 145.336 399.789 145.247 399.603 145.229C399.417 145.247 399.244 145.336 399.118 145.479C398.992 145.622 398.922 145.809 398.922 146.002C398.922 146.196 398.992 146.383 399.118 146.526C399.244 146.669 399.417 146.758 399.603 146.776V146.776Z" fill="#DD7466"/>
<path d="M401.281 142.284C401.478 142.284 401.667 142.202 401.806 142.058C401.945 141.914 402.023 141.718 402.023 141.513C402.023 141.309 401.945 141.113 401.806 140.969C401.667 140.825 401.478 140.743 401.281 140.743C401.084 140.743 400.895 140.825 400.756 140.969C400.616 141.113 400.538 141.309 400.538 141.513C400.538 141.718 400.616 141.914 400.756 142.058C400.895 142.202 401.084 142.284 401.281 142.284V142.284Z" fill="#DD7466"/>
<path d="M396.385 140.115C396.571 140.097 396.744 140.008 396.87 139.865C396.996 139.722 397.066 139.535 397.066 139.341C397.066 139.148 396.996 138.961 396.87 138.818C396.744 138.675 396.571 138.586 396.385 138.568C396.199 138.586 396.026 138.675 395.9 138.818C395.774 138.961 395.704 139.148 395.704 139.341C395.704 139.535 395.774 139.722 395.9 139.865C396.026 140.008 396.199 140.097 396.385 140.115V140.115Z" fill="#DD7466"/>
<path d="M394.571 142.72C394.758 142.702 394.931 142.613 395.057 142.47C395.183 142.327 395.252 142.14 395.252 141.947C395.252 141.753 395.183 141.566 395.057 141.423C394.931 141.28 394.758 141.191 394.571 141.173C394.385 141.191 394.212 141.28 394.086 141.423C393.96 141.566 393.891 141.753 393.891 141.947C393.891 142.14 393.96 142.327 394.086 142.47C394.212 142.613 394.385 142.702 394.571 142.72V142.72Z" fill="#DD7466"/>
<path d="M393.315 137.65C393.501 137.633 393.674 137.544 393.8 137.401C393.926 137.258 393.996 137.071 393.996 136.877C393.996 136.683 393.926 136.497 393.8 136.354C393.674 136.21 393.501 136.121 393.315 136.104C393.129 136.121 392.956 136.21 392.83 136.354C392.704 136.497 392.634 136.683 392.634 136.877C392.634 137.071 392.704 137.258 392.83 137.401C392.956 137.544 393.129 137.633 393.315 137.65V137.65Z" fill="#DD7466"/>
<path d="M388.84 135.475C389.037 135.475 389.226 135.394 389.366 135.249C389.505 135.105 389.583 134.909 389.583 134.705C389.583 134.501 389.505 134.305 389.366 134.16C389.226 134.016 389.037 133.935 388.84 133.935C388.643 133.935 388.454 134.016 388.315 134.16C388.176 134.305 388.098 134.501 388.098 134.705C388.098 134.909 388.176 135.105 388.315 135.249C388.454 135.394 388.643 135.475 388.84 135.475V135.475Z" fill="#DD7466"/>
<path d="M52.31 325.454H55.97V326.564H50.945V316.109H52.31V325.454ZM61.0046 326.699C60.2346 326.699 59.5346 326.524 58.9046 326.174C58.2846 325.824 57.7946 325.329 57.4346 324.689C57.0846 324.039 56.9096 323.289 56.9096 322.439C56.9096 321.599 57.0896 320.859 57.4496 320.219C57.8196 319.569 58.3196 319.074 58.9496 318.734C59.5796 318.384 60.2846 318.209 61.0646 318.209C61.8446 318.209 62.5496 318.384 63.1796 318.734C63.8096 319.074 64.3046 319.564 64.6646 320.204C65.0346 320.844 65.2196 321.589 65.2196 322.439C65.2196 323.289 65.0296 324.039 64.6496 324.689C64.2796 325.329 63.7746 325.824 63.1346 326.174C62.4946 326.524 61.7846 326.699 61.0046 326.699ZM61.0046 325.499C61.4946 325.499 61.9546 325.384 62.3846 325.154C62.8146 324.924 63.1596 324.579 63.4196 324.119C63.6896 323.659 63.8246 323.099 63.8246 322.439C63.8246 321.779 63.6946 321.219 63.4346 320.759C63.1746 320.299 62.8346 319.959 62.4146 319.739C61.9946 319.509 61.5396 319.394 61.0496 319.394C60.5496 319.394 60.0896 319.509 59.6696 319.739C59.2596 319.959 58.9296 320.299 58.6796 320.759C58.4296 321.219 58.3046 321.779 58.3046 322.439C58.3046 323.109 58.4246 323.674 58.6646 324.134C58.9146 324.594 59.2446 324.939 59.6546 325.169C60.0646 325.389 60.5146 325.499 61.0046 325.499ZM70.4044 318.209C71.1144 318.209 71.7344 318.364 72.2644 318.674C72.8044 318.984 73.2044 319.374 73.4644 319.844V318.344H74.8444V326.744C74.8444 327.494 74.6844 328.159 74.3644 328.739C74.0444 329.329 73.5844 329.789 72.9844 330.119C72.3944 330.449 71.7044 330.614 70.9144 330.614C69.8344 330.614 68.9344 330.359 68.2144 329.849C67.4944 329.339 67.0694 328.644 66.9394 327.764H68.2894C68.4394 328.264 68.7494 328.664 69.2194 328.964C69.6894 329.274 70.2544 329.429 70.9144 329.429C71.6644 329.429 72.2744 329.194 72.7444 328.724C73.2244 328.254 73.4644 327.594 73.4644 326.744V325.019C73.1944 325.499 72.7944 325.899 72.2644 326.219C71.7344 326.539 71.1144 326.699 70.4044 326.699C69.6744 326.699 69.0094 326.519 68.4094 326.159C67.8194 325.799 67.3544 325.294 67.0144 324.644C66.6744 323.994 66.5044 323.254 66.5044 322.424C66.5044 321.584 66.6744 320.849 67.0144 320.219C67.3544 319.579 67.8194 319.084 68.4094 318.734C69.0094 318.384 69.6744 318.209 70.4044 318.209ZM73.4644 322.439C73.4644 321.819 73.3394 321.279 73.0894 320.819C72.8394 320.359 72.4994 320.009 72.0694 319.769C71.6494 319.519 71.1844 319.394 70.6744 319.394C70.1644 319.394 69.6994 319.514 69.2794 319.754C68.8594 319.994 68.5244 320.344 68.2744 320.804C68.0244 321.264 67.8994 321.804 67.8994 322.424C67.8994 323.054 68.0244 323.604 68.2744 324.074C68.5244 324.534 68.8594 324.889 69.2794 325.139C69.6994 325.379 70.1644 325.499 70.6744 325.499C71.1844 325.499 71.6494 325.379 72.0694 325.139C72.4994 324.889 72.8394 324.534 73.0894 324.074C73.3394 323.604 73.4644 323.059 73.4644 322.439ZM80.7361 326.699C79.9661 326.699 79.2661 326.524 78.6361 326.174C78.0161 325.824 77.5261 325.329 77.1661 324.689C76.8161 324.039 76.6411 323.289 76.6411 322.439C76.6411 321.599 76.8211 320.859 77.1811 320.219C77.5511 319.569 78.0511 319.074 78.6811 318.734C79.3111 318.384 80.0161 318.209 80.7961 318.209C81.5761 318.209 82.2811 318.384 82.9111 318.734C83.5411 319.074 84.0361 319.564 84.3961 320.204C84.7661 320.844 84.9511 321.589 84.9511 322.439C84.9511 323.289 84.7611 324.039 84.3811 324.689C84.0111 325.329 83.5061 325.824 82.8661 326.174C82.2261 326.524 81.5161 326.699 80.7361 326.699ZM80.7361 325.499C81.2261 325.499 81.6861 325.384 82.1161 325.154C82.5461 324.924 82.8911 324.579 83.1511 324.119C83.4211 323.659 83.5561 323.099 83.5561 322.439C83.5561 321.779 83.4261 321.219 83.1661 320.759C82.9061 320.299 82.5661 319.959 82.1461 319.739C81.7261 319.509 81.2711 319.394 80.7811 319.394C80.2811 319.394 79.8211 319.509 79.4011 319.739C78.9911 319.959 78.6611 320.299 78.4111 320.759C78.1611 321.219 78.0361 321.779 78.0361 322.439C78.0361 323.109 78.1561 323.674 78.3961 324.134C78.6461 324.594 78.9761 324.939 79.3861 325.169C79.7961 325.389 80.2461 325.499 80.7361 325.499ZM93.9998 316.109C95.1398 316.109 96.1248 316.324 96.9548 316.754C97.7948 317.174 98.4348 317.779 98.8748 318.569C99.3248 319.359 99.5498 320.289 99.5498 321.359C99.5498 322.429 99.3248 323.359 98.8748 324.149C98.4348 324.929 97.7948 325.529 96.9548 325.949C96.1248 326.359 95.1398 326.564 93.9998 326.564H90.7448V316.109H93.9998ZM93.9998 325.439C95.3498 325.439 96.3798 325.084 97.0898 324.374C97.7998 323.654 98.1548 322.649 98.1548 321.359C98.1548 320.059 97.7948 319.044 97.0748 318.314C96.3648 317.584 95.3398 317.219 93.9998 317.219H92.1098V325.439H93.9998ZM108.85 322.139C108.85 322.399 108.835 322.674 108.805 322.964H102.235C102.285 323.774 102.56 324.409 103.06 324.869C103.57 325.319 104.185 325.544 104.905 325.544C105.495 325.544 105.985 325.409 106.375 325.139C106.775 324.859 107.055 324.489 107.215 324.029H108.685C108.465 324.819 108.025 325.464 107.365 325.964C106.705 326.454 105.885 326.699 104.905 326.699C104.125 326.699 103.425 326.524 102.805 326.174C102.195 325.824 101.715 325.329 101.365 324.689C101.015 324.039 100.84 323.289 100.84 322.439C100.84 321.589 101.01 320.844 101.35 320.204C101.69 319.564 102.165 319.074 102.775 318.734C103.395 318.384 104.105 318.209 104.905 318.209C105.685 318.209 106.375 318.379 106.975 318.719C107.575 319.059 108.035 319.529 108.355 320.129C108.685 320.719 108.85 321.389 108.85 322.139ZM107.44 321.854C107.44 321.334 107.325 320.889 107.095 320.519C106.865 320.139 106.55 319.854 106.15 319.664C105.76 319.464 105.325 319.364 104.845 319.364C104.155 319.364 103.565 319.584 103.075 320.024C102.595 320.464 102.32 321.074 102.25 321.854H107.44ZM113.562 326.699C112.932 326.699 112.367 326.594 111.867 326.384C111.367 326.164 110.972 325.864 110.682 325.484C110.392 325.094 110.232 324.649 110.202 324.149H111.612C111.652 324.559 111.842 324.894 112.182 325.154C112.532 325.414 112.987 325.544 113.547 325.544C114.067 325.544 114.477 325.429 114.777 325.199C115.077 324.969 115.227 324.679 115.227 324.329C115.227 323.969 115.067 323.704 114.747 323.534C114.427 323.354 113.932 323.179 113.262 323.009C112.652 322.849 112.152 322.689 111.762 322.529C111.382 322.359 111.052 322.114 110.772 321.794C110.502 321.464 110.367 321.034 110.367 320.504C110.367 320.084 110.492 319.699 110.742 319.349C110.992 318.999 111.347 318.724 111.807 318.524C112.267 318.314 112.792 318.209 113.382 318.209C114.292 318.209 115.027 318.439 115.587 318.899C116.147 319.359 116.447 319.989 116.487 320.789H115.122C115.092 320.359 114.917 320.014 114.597 319.754C114.287 319.494 113.867 319.364 113.337 319.364C112.847 319.364 112.457 319.469 112.167 319.679C111.877 319.889 111.732 320.164 111.732 320.504C111.732 320.774 111.817 320.999 111.987 321.179C112.167 321.349 112.387 321.489 112.647 321.599C112.917 321.699 113.287 321.814 113.757 321.944C114.347 322.104 114.827 322.264 115.197 322.424C115.567 322.574 115.882 322.804 116.142 323.114C116.412 323.424 116.552 323.829 116.562 324.329C116.562 324.779 116.437 325.184 116.187 325.544C115.937 325.904 115.582 326.189 115.122 326.399C114.672 326.599 114.152 326.699 113.562 326.699ZM119.194 317.009C118.934 317.009 118.714 316.919 118.534 316.739C118.354 316.559 118.264 316.339 118.264 316.079C118.264 315.819 118.354 315.599 118.534 315.419C118.714 315.239 118.934 315.149 119.194 315.149C119.444 315.149 119.654 315.239 119.824 315.419C120.004 315.599 120.094 315.819 120.094 316.079C120.094 316.339 120.004 316.559 119.824 316.739C119.654 316.919 119.444 317.009 119.194 317.009ZM119.854 318.344V326.564H118.489V318.344H119.854ZM125.57 318.209C126.28 318.209 126.9 318.364 127.43 318.674C127.97 318.984 128.37 319.374 128.63 319.844V318.344H130.01V326.744C130.01 327.494 129.85 328.159 129.53 328.739C129.21 329.329 128.75 329.789 128.15 330.119C127.56 330.449 126.87 330.614 126.08 330.614C125 330.614 124.1 330.359 123.38 329.849C122.66 329.339 122.235 328.644 122.105 327.764H123.455C123.605 328.264 123.915 328.664 124.385 328.964C124.855 329.274 125.42 329.429 126.08 329.429C126.83 329.429 127.44 329.194 127.91 328.724C128.39 328.254 128.63 327.594 128.63 326.744V325.019C128.36 325.499 127.96 325.899 127.43 326.219C126.9 326.539 126.28 326.699 125.57 326.699C124.84 326.699 124.175 326.519 123.575 326.159C122.985 325.799 122.52 325.294 122.18 324.644C121.84 323.994 121.67 323.254 121.67 322.424C121.67 321.584 121.84 320.849 122.18 320.219C122.52 319.579 122.985 319.084 123.575 318.734C124.175 318.384 124.84 318.209 125.57 318.209ZM128.63 322.439C128.63 321.819 128.505 321.279 128.255 320.819C128.005 320.359 127.665 320.009 127.235 319.769C126.815 319.519 126.35 319.394 125.84 319.394C125.33 319.394 124.865 319.514 124.445 319.754C124.025 319.994 123.69 320.344 123.44 320.804C123.19 321.264 123.065 321.804 123.065 322.424C123.065 323.054 123.19 323.604 123.44 324.074C123.69 324.534 124.025 324.889 124.445 325.139C124.865 325.379 125.33 325.499 125.84 325.499C126.35 325.499 126.815 325.379 127.235 325.139C127.665 324.889 128.005 324.534 128.255 324.074C128.505 323.604 128.63 323.059 128.63 322.439ZM136.322 318.194C137.322 318.194 138.132 318.499 138.752 319.109C139.372 319.709 139.682 320.579 139.682 321.719V326.564H138.332V321.914C138.332 321.094 138.127 320.469 137.717 320.039C137.307 319.599 136.747 319.379 136.037 319.379C135.317 319.379 134.742 319.604 134.312 320.054C133.892 320.504 133.682 321.159 133.682 322.019V326.564H132.317V318.344H133.682V319.514C133.952 319.094 134.317 318.769 134.777 318.539C135.247 318.309 135.762 318.194 136.322 318.194Z" fill="black"/>
<path d="M50.91 362.618H57.15V385.178H68.71V390.938H50.91V362.618ZM70.6744 381.218C70.6744 379.671 70.9544 378.271 71.5144 377.018C72.0744 375.764 72.8344 374.698 73.7944 373.818C74.7811 372.911 75.9277 372.218 77.2344 371.738C78.5677 371.258 79.9811 371.018 81.4744 371.018C82.9677 371.018 84.3677 371.258 85.6744 371.738C87.0077 372.218 88.1544 372.911 89.1144 373.818C90.1011 374.698 90.8744 375.764 91.4344 377.018C91.9944 378.271 92.2744 379.671 92.2744 381.218C92.2744 382.764 91.9944 384.164 91.4344 385.418C90.8744 386.671 90.1011 387.751 89.1144 388.658C88.1544 389.538 87.0077 390.218 85.6744 390.698C84.3677 391.178 82.9677 391.418 81.4744 391.418C79.9811 391.418 78.5677 391.178 77.2344 390.698C75.9277 390.218 74.7811 389.538 73.7944 388.658C72.8344 387.751 72.0744 386.671 71.5144 385.418C70.9544 384.164 70.6744 382.764 70.6744 381.218ZM76.6744 381.218C76.6744 382.684 77.0877 383.871 77.9144 384.778C78.7677 385.684 79.9544 386.138 81.4744 386.138C82.9944 386.138 84.1677 385.684 84.9944 384.778C85.8477 383.871 86.2744 382.684 86.2744 381.218C86.2744 379.751 85.8477 378.564 84.9944 377.658C84.1677 376.751 82.9944 376.298 81.4744 376.298C79.9544 376.298 78.7677 376.751 77.9144 377.658C77.0877 378.564 76.6744 379.751 76.6744 381.218ZM116.208 389.298C116.208 392.978 115.275 395.764 113.408 397.658C111.568 399.578 108.755 400.538 104.968 400.538C103.235 400.538 101.528 400.338 99.8485 399.938C98.1685 399.564 96.6218 398.818 95.2085 397.698L98.5285 392.738C99.4618 393.511 100.435 394.124 101.448 394.578C102.488 395.031 103.622 395.258 104.848 395.258C106.688 395.258 108.035 394.804 108.888 393.898C109.768 393.018 110.208 391.884 110.208 390.498V388.618H110.128C109.435 389.551 108.568 390.218 107.528 390.618C106.515 390.991 105.555 391.178 104.648 391.178C103.208 391.178 101.902 390.938 100.728 390.458C99.5551 389.951 98.5418 389.258 97.6885 388.378C96.8618 387.471 96.2218 386.404 95.7685 385.178C95.3151 383.951 95.0885 382.604 95.0885 381.138C95.0885 379.858 95.2885 378.604 95.6885 377.378C96.1151 376.151 96.7018 375.071 97.4485 374.138C98.2218 373.204 99.1551 372.458 100.248 371.898C101.342 371.311 102.582 371.018 103.968 371.018C104.822 371.018 105.595 371.111 106.288 371.298C107.008 371.484 107.648 371.724 108.208 372.018C108.768 372.311 109.248 372.644 109.648 373.018C110.048 373.364 110.368 373.711 110.608 374.058H110.688V371.498H116.208V389.298ZM101.088 381.098C101.088 381.738 101.208 382.351 101.448 382.938C101.688 383.498 102.022 384.004 102.448 384.458C102.902 384.884 103.408 385.231 103.968 385.498C104.555 385.764 105.195 385.898 105.888 385.898C106.555 385.898 107.182 385.764 107.768 385.498C108.355 385.231 108.862 384.884 109.288 384.458C109.742 384.004 110.088 383.498 110.328 382.938C110.568 382.351 110.688 381.738 110.688 381.098C110.688 380.458 110.568 379.858 110.328 379.298C110.088 378.711 109.742 378.204 109.288 377.778C108.862 377.324 108.355 376.964 107.768 376.698C107.182 376.431 106.555 376.298 105.888 376.298C105.195 376.298 104.555 376.431 103.968 376.698C103.408 376.964 102.902 377.324 102.448 377.778C102.022 378.204 101.688 378.711 101.448 379.298C101.208 379.858 101.088 380.458 101.088 381.098ZM120.284 381.218C120.284 379.671 120.564 378.271 121.124 377.018C121.684 375.764 122.444 374.698 123.404 373.818C124.39 372.911 125.537 372.218 126.844 371.738C128.177 371.258 129.59 371.018 131.084 371.018C132.577 371.018 133.977 371.258 135.284 371.738C136.617 372.218 137.764 372.911 138.724 373.818C139.71 374.698 140.484 375.764 141.044 377.018C141.604 378.271 141.884 379.671 141.884 381.218C141.884 382.764 141.604 384.164 141.044 385.418C140.484 386.671 139.71 387.751 138.724 388.658C137.764 389.538 136.617 390.218 135.284 390.698C133.977 391.178 132.577 391.418 131.084 391.418C129.59 391.418 128.177 391.178 126.844 390.698C125.537 390.218 124.39 389.538 123.404 388.658C122.444 387.751 121.684 386.671 121.124 385.418C120.564 384.164 120.284 382.764 120.284 381.218ZM126.284 381.218C126.284 382.684 126.697 383.871 127.524 384.778C128.377 385.684 129.564 386.138 131.084 386.138C132.604 386.138 133.777 385.684 134.604 384.778C135.457 383.871 135.884 382.684 135.884 381.218C135.884 379.751 135.457 378.564 134.604 377.658C133.777 376.751 132.604 376.298 131.084 376.298C129.564 376.298 128.377 376.751 127.524 377.658C126.697 378.564 126.284 379.751 126.284 381.218ZM183.654 388.938C181.814 389.898 179.894 390.591 177.894 391.018C175.894 391.444 173.854 391.658 171.774 391.658C169.56 391.658 167.52 391.311 165.654 390.618C163.787 389.924 162.174 388.938 160.814 387.658C159.454 386.351 158.387 384.778 157.614 382.938C156.867 381.098 156.494 379.044 156.494 376.778C156.494 374.511 156.867 372.458 157.614 370.618C158.387 368.778 159.454 367.218 160.814 365.938C162.174 364.631 163.787 363.631 165.654 362.938C167.52 362.244 169.56 361.898 171.774 361.898C174.04 361.898 176.12 362.178 178.014 362.738C179.934 363.271 181.614 364.204 183.054 365.538L178.654 370.338C177.8 369.458 176.84 368.791 175.774 368.338C174.707 367.884 173.374 367.658 171.774 367.658C170.44 367.658 169.227 367.884 168.134 368.338C167.067 368.791 166.147 369.431 165.374 370.258C164.6 371.058 164 372.018 163.574 373.138C163.174 374.258 162.974 375.471 162.974 376.778C162.974 378.111 163.174 379.338 163.574 380.458C164 381.551 164.6 382.511 165.374 383.338C166.147 384.138 167.067 384.764 168.134 385.218C169.227 385.671 170.44 385.898 171.774 385.898C173.134 385.898 174.307 385.751 175.294 385.458C176.28 385.138 177.067 384.818 177.654 384.498V379.898H172.574V374.138H183.654V388.938ZM200.587 388.498H200.507C199.84 389.538 198.947 390.284 197.827 390.738C196.733 391.191 195.573 391.418 194.347 391.418C193.44 391.418 192.56 391.284 191.707 391.018C190.88 390.778 190.147 390.404 189.507 389.898C188.867 389.391 188.36 388.764 187.987 388.018C187.613 387.271 187.427 386.404 187.427 385.418C187.427 384.298 187.627 383.351 188.027 382.578C188.453 381.804 189.013 381.164 189.707 380.658C190.427 380.151 191.24 379.764 192.147 379.498C193.053 379.204 193.987 378.991 194.947 378.858C195.933 378.724 196.907 378.644 197.867 378.618C198.853 378.591 199.76 378.578 200.587 378.578C200.587 377.511 200.2 376.671 199.427 376.058C198.68 375.418 197.787 375.098 196.747 375.098C195.76 375.098 194.853 375.311 194.027 375.738C193.227 376.138 192.507 376.698 191.867 377.418L188.667 374.138C189.787 373.098 191.093 372.324 192.587 371.818C194.08 371.284 195.627 371.018 197.227 371.018C198.987 371.018 200.427 371.244 201.547 371.698C202.693 372.124 203.6 372.764 204.267 373.618C204.96 374.471 205.44 375.524 205.707 376.778C205.973 378.004 206.107 379.431 206.107 381.058V390.938H200.587V388.498ZM199.107 382.418C198.653 382.418 198.08 382.444 197.387 382.498C196.72 382.524 196.067 382.631 195.427 382.818C194.813 383.004 194.28 383.284 193.827 383.658C193.4 384.031 193.187 384.551 193.187 385.218C193.187 385.938 193.493 386.471 194.107 386.818C194.72 387.164 195.36 387.338 196.027 387.338C196.613 387.338 197.173 387.258 197.707 387.098C198.267 386.938 198.76 386.711 199.187 386.418C199.613 386.124 199.947 385.751 200.187 385.298C200.453 384.844 200.587 384.311 200.587 383.698V382.418H199.107ZM209.951 360.698H215.951V390.938H209.951V360.698ZM220.342 360.698H226.342V390.938H220.342V360.698ZM249.052 387.578C248.092 388.804 246.879 389.751 245.412 390.418C243.946 391.084 242.426 391.418 240.852 391.418C239.359 391.418 237.946 391.178 236.612 390.698C235.306 390.218 234.159 389.538 233.172 388.658C232.212 387.751 231.452 386.671 230.892 385.418C230.332 384.164 230.052 382.764 230.052 381.218C230.052 379.671 230.332 378.271 230.892 377.018C231.452 375.764 232.212 374.698 233.172 373.818C234.159 372.911 235.306 372.218 236.612 371.738C237.946 371.258 239.359 371.018 240.852 371.018C242.239 371.018 243.492 371.258 244.612 371.738C245.759 372.218 246.719 372.911 247.492 373.818C248.292 374.698 248.906 375.764 249.332 377.018C249.759 378.271 249.972 379.671 249.972 381.218V383.098H236.052C236.292 384.244 236.812 385.164 237.612 385.858C238.412 386.524 239.399 386.858 240.572 386.858C241.559 386.858 242.386 386.644 243.052 386.218C243.746 385.764 244.346 385.191 244.852 384.498L249.052 387.578ZM243.972 379.018C243.999 378.004 243.666 377.138 242.972 376.418C242.279 375.698 241.386 375.338 240.292 375.338C239.626 375.338 239.039 375.444 238.532 375.658C238.026 375.871 237.586 376.151 237.212 376.498C236.866 376.818 236.586 377.204 236.372 377.658C236.186 378.084 236.079 378.538 236.052 379.018H243.972ZM253.621 371.498H259.621V374.618H259.701C260.341 373.418 261.101 372.524 261.981 371.938C262.861 371.324 263.968 371.018 265.301 371.018C265.648 371.018 265.994 371.031 266.341 371.058C266.688 371.084 267.008 371.138 267.301 371.218V376.698C266.874 376.564 266.448 376.471 266.021 376.418C265.621 376.338 265.194 376.298 264.741 376.298C263.594 376.298 262.688 376.458 262.021 376.778C261.354 377.098 260.834 377.551 260.461 378.138C260.114 378.698 259.888 379.378 259.781 380.178C259.674 380.978 259.621 381.858 259.621 382.818V390.938H253.621V371.498ZM281.11 394.098C280.71 395.138 280.323 396.058 279.95 396.858C279.577 397.658 279.097 398.324 278.51 398.858C277.95 399.418 277.23 399.831 276.35 400.098C275.47 400.391 274.31 400.538 272.87 400.538C271.323 400.538 269.83 400.298 268.39 399.818L269.19 394.898C270.097 395.298 271.03 395.498 271.99 395.498C272.657 395.498 273.203 395.418 273.63 395.258C274.057 395.124 274.403 394.911 274.67 394.618C274.963 394.351 275.203 394.018 275.39 393.618C275.577 393.218 275.777 392.751 275.99 392.218L276.43 391.098L267.91 371.498H274.39L279.39 384.338H279.47L283.75 371.498H289.91L281.11 394.098Z" fill="black"/>
<path d="M49.79 343.363H149.709" stroke="black" stroke-width="3"/>
</svg>
